Coordinates
version=1
nRows=26
nColumns=24
inDegrees=yes

Units are S.I. units (second, meters, Newtons, ...)
Angles are in degrees.

endheader
time	pelvis_tilt	pelvis_list	pelvis_rotation	pelvis_tx	pelvis_ty	pelvis_tz	hip_flexion_r	hip_adduction_r	hip_rotation_r	knee_angle_r	ankle_angle_r	subtalar_angle_r	mtp_angle_r	hip_flexion_l	hip_adduction_l	hip_rotation_l	knee_angle_l	ankle_angle_l	subtalar_angle_l	mtp_angle_l	lumbar_extension	lumbar_bending	lumbar_rotation
      4.81000000	     -0.94702802	     -7.01060700	    -16.74510085	      1.71153042	      0.68175920	     -0.15334207	    -18.36693304	      8.62029767	     12.40840113	    -22.55562799	     16.09712140	     16.51160957	      0.00000000	     20.83346278	     -6.20638203	      6.61275380	      1.22214501	      2.08635447	    -24.08134941	      0.00000000	    -16.23462752	      4.81618559	      6.32863145
      4.82000000	     -0.59924929	     -5.77617746	    -16.61396274	      1.72786252	      0.68166969	     -0.15375550	    -17.14164100	      6.69870922	      9.73983172	    -26.37683524	     13.91329340	     19.33201033	      0.00000000	     21.28424165	     -4.07580862	      7.77524880	     -1.80674143	      0.95318094	    -25.17401800	      0.00000000	    -15.92816557	      3.36236547	      5.94262407
      4.83000000	     -0.02146949	     -4.40618941	    -16.52592655	      1.74397261	      0.68187970	     -0.15412210	    -15.89410321	      4.51840496	      7.65646855	    -30.40333727	     11.35816237	     21.79533970	      0.00000000	     21.56477916	     -1.74919196	      8.28185806	     -4.85499849	      0.01602122	    -25.46983782	      0.00000000	    -15.94664642	      1.64400722	      5.61188996
      4.84000000	      0.48579383	     -2.98358880	    -16.32396416	      1.75980762	      0.68195341	     -0.15456050	    -14.33293348	      2.36306284	      6.00875561	    -34.61261461	      8.54093313	     23.72915093	      0.00000000	     21.95185385	      0.61846819	      8.71157496	     -7.82712849	     -0.93426105	    -25.51880733	      0.00000000	    -15.93631487	     -0.09835720	      5.14436698
      4.85000000	      0.57602097	     -1.56745635	    -16.10692778	      1.77519133	      0.68153880	     -0.15502921	    -12.06029243	      0.42171119	      4.94584266	    -39.04735036	      5.73924402	     25.20110161	      0.00000000	     22.78624477	      2.82172685	      8.84526933	    -10.73142114	     -1.67841846	    -25.22810952	      0.00000000	    -15.50571788	     -1.67304940	      4.79601427
      4.86000000	      0.93216478	     -0.11807635	    -15.91220202	      1.79005206	      0.68139387	     -0.15518130	     -9.89071735	     -1.46381299	      4.52341259	    -43.49923695	      3.40157366	     26.09190457	      0.00000000	     23.21686846	      4.98705207	      8.40252792	    -13.34834578	     -1.85859399	    -24.28801881	      0.00000000	    -15.50124545	     -3.47544090	      4.45181571
      4.87000000	      0.80104092	      1.20856275	    -15.78651226	      1.80427582	      0.68079438	     -0.15507676	     -6.96121148	     -2.88374031	      4.62591172	    -48.06824820	      1.45859156	     26.11261003	      0.00000000	     24.01769903	      6.72077152	      7.34207313	    -15.70071843	     -1.32586220	    -22.81487394	      0.00000000	    -15.00716324	     -4.99597629	      4.17829486
      4.88000000	      0.97573044	      2.53109836	    -15.62909226	      1.81822290	      0.68069621	     -0.15489791	     -4.30238303	     -4.23024757	      5.04513012	    -52.41010161	      0.42246159	     25.97392869	      0.00000000	     24.06253650	      8.45401141	      6.50151166	    -17.31546350	     -0.72453769	    -21.76315580	      0.00000000	    -14.88347675	     -6.62012489	      3.91678907
      4.89000000	      0.88042743	      3.70955850	    -15.41521585	      1.83172148	      0.68068177	     -0.15460739	     -1.30392429	     -5.15009199	      5.63715556	    -56.51224261	      0.02365775	     25.05717736	      0.00000000	     24.03213891	      9.89553056	      5.64089605	    -18.38192309	      0.20282501	    -20.70141030	      0.00000000	    -14.49618274	     -7.99410001	      3.65575457
      4.90000000	      0.79622713	      4.73015748	    -15.07547911	      1.84510548	      0.68121832	     -0.15435142	      1.57529628	     -5.78457980	      6.21170444	    -60.13138127	      0.29672436	     23.67589122	      0.00000000	     23.45736407	     11.21238985	      5.31474559	    -18.69892972	      1.23085250	    -19.95376803	      0.00000000	    -14.11486346	     -9.15223928	      3.27897123
      4.91000000	      0.81208202	      5.53619689	    -14.63562323	      1.85839320	      0.68250907	     -0.15420086	      4.18903155	     -6.17627117	      6.66983448	    -63.16634925	      1.14157008	     21.96404139	      0.00000000	     22.25017145	     12.39781654	      5.55937332	    -18.30343939	      2.12575416	    -19.66720564	      0.00000000	    -13.88722719	    -10.03482730	      2.82098148
      4.92000000	      0.95092127	      6.05547401	    -14.11973650	      1.87162215	      0.68462156	     -0.15404602	      6.44734403	     -6.27518583	      6.98204405	    -65.52234248	      2.40299071	     19.96072628	      0.00000000	     20.42702692	     13.34960768	      6.31709534	    -17.31222461	      2.91232864	    -19.62629600	      0.00000000	    -13.85024398	    -10.58860716	      2.26549531
      4.93000000	      0.92881231	      6.28159465	    -13.56699490	      1.88494182	      0.68715264	     -0.15397434	      8.66389467	     -6.04714479	      7.16651713	    -67.21040375	      3.87224295	     17.83568251	      0.00000000	     18.27652431	     13.99360260	      8.01778791	    -15.72412240	      3.10202303	    -20.55715363	      0.00000000	    -13.58422574	    -10.70376687	      1.79771284
      4.94000000	      1.01531962	      6.15451172	    -12.90817807	      1.89818842	      0.69028864	     -0.15390128	     10.49749121	     -5.51224370	      7.08595042	    -68.19277398	      5.42634917	     15.57977083	      0.00000000	     15.71078599	     14.25674459	     10.19763490	    -13.85223397	      2.97927416	    -21.77422097	      0.00000000	    -13.54777514	    -10.42893300	      1.21574263
      4.95000000	      1.00409520	      5.72138321	    -12.17256851	      1.91128418	      0.69357985	     -0.15376698	     12.24041141	     -4.66646110	      6.77162305	    -68.56753215	      6.87795475	     13.13571705	      0.00000000	     13.12627927	     14.07838302	     12.60348285	    -11.91252321	      2.65151295	    -23.12495885	      0.00000000	    -13.48177627	     -9.79086045	      0.61980965
      4.96000000	      0.96727189	      4.96231695	    -11.44299776	      1.92437146	      0.69698291	     -0.15354550	     13.78508782	     -3.49905030	      6.35155208	    -68.32518159	      8.24925107	     10.78352269	      0.00000000	     10.46228970	     13.43074985	     15.23184441	     -9.88395016	      1.94197276	    -24.92498186	      0.00000000	    -13.42053188	     -8.77115489	      0.23506885
      4.97000000	      0.70691160	      4.11613477	    -10.54543774	      1.93708544	      0.69992855	     -0.15331081	     15.50983041	     -2.25165554	      5.65093696	    -67.68158543	      9.31861568	      8.16029940	      0.00000000	      8.29101553	     12.54995475	     17.56820716	     -8.22142457	      1.60745744	    -26.02704660	      0.00000000	    -13.24607419	     -7.66532625	     -0.37706466
      4.98000000	      0.48067043	      3.08491588	     -9.64368729	      1.94981443	      0.70272536	     -0.15310324	     17.02591891	     -0.88196778	      4.88368774	    -66.52739523	     10.28716035	      5.76255085	      0.00000000	      6.12815156	     11.39599280	     19.97222452	     -6.58833190	      0.85402577	    -27.66500704	      0.00000000	    -13.14538239	     -6.33357522	     -0.86700796
      4.99000000	      0.20031246	      2.10938271	     -8.77112829	      1.96227927	      0.70497971	     -0.15269898	     18.60059483	      0.42473129	      4.12410556	    -65.07811663	     10.98171322	      3.22400381	      0.00000000	      4.24091937	     10.20569469	     22.06165574	     -5.14817991	      0.25835030	    -29.07298321	      0.00000000	    -13.06853255	     -5.13356387	     -1.40849919
      5.00000000	     -0.16327462	      1.25497562	     -7.70405410	      1.97460967	      0.70660162	     -0.15246719	     20.22015754	      1.47652006	      3.16586752	    -63.33270540	     11.57489354	      0.84177269	      0.00000000	      2.69219247	      9.11729373	     23.98836607	     -4.00681152	      0.08390246	    -29.89475059	      0.00000000	    -12.93801231	     -4.07479483	     -2.04564630
      5.01000000	     -0.43870850	      0.49356225	     -6.69466389	      1.98682692	      0.70779841	     -0.15207906	     21.69628416	      2.40528055	      2.34812149	    -61.29219648	     12.01911819	     -1.40653506	      0.00000000	      1.15360661	      8.07967789	     25.83033453	     -2.89678450	     -0.32636327	    -31.05153195	      0.00000000	    -12.95724809	     -3.18008133	     -2.71824783
      5.02000000	     -0.69192421	     -0.06774211	     -5.70075641	      1.99893010	      0.70840692	     -0.15161454	     23.13868721	      3.06835356	      1.61415636	    -59.04323548	     12.33895798	     -3.46508503	      0.00000000	     -0.26923504	      7.22863087	     27.43509259	     -1.88785443	     -0.52225762	    -31.99890882	      0.00000000	    -13.02739771	     -2.55744588	     -3.41441768
      5.03000000	     -0.87689208	     -0.48326050	     -4.69204541	      2.01102203	      0.70856658	     -0.15114746	     24.42937672	      3.50222505	      0.94990415	    -56.53292254	     12.63536883	     -5.13050497	      0.00000000	     -1.69106480	      6.50320533	     28.97757985	     -0.91851027	     -0.70689435	    -32.97656130	      0.00000000	    -13.18293555	     -2.11994312	     -4.09703907
      5.04000000	     -0.98957405	     -0.76058960	     -3.70054774	      2.02311215	      0.70833551	     -0.15064717	     25.54458038	      3.73872128	      0.40662338	    -53.75796113	     12.92240929	     -6.34980266	      0.00000000	     -3.13396288	      5.89079708	     30.44557025	      0.01700277	     -0.87334352	    -33.96259500	      0.00000000	    -13.42164542	     -1.85659013	     -4.75236426
      5.05000000	     -1.10284911	     -0.86834042	     -2.75034159	      2.03518611	      0.70766082	     -0.15005883	     26.56500023	      3.77793710	      0.01934958	    -50.73487812	     13.13136593	     -7.24808768	      0.00000000	     -4.50509611	      5.44063562	     31.70055511	      0.87010608	     -0.78113800	    -34.68260907	      0.00000000	    -13.65126451	     -1.81184784	     -5.47707343
      5.06000000	     -1.23526340	     -0.89485446	     -1.85989397	      2.04734956	      0.70664465	     -0.14944522	     27.44156139	      3.69924369	     -0.25105762	    -47.38401940	     13.34557428	     -7.73702982	      0.00000000	     -5.81893629	      5.05433658	     32.82314506	      1.65557940	     -0.54719887	    -35.17401894	      0.00000000	    -13.82131257	     -1.85481607	     -6.12001037
